<svg class="mx-auto" width="304" height="157" viewBox="0 0 304 157" fill="none" xmlns="http://www.w3.org/2000/svg">
<path d="M130.664 0.296001C131.347 0.296001 131.859 0.509335 132.2 0.936003C132.541 1.36267 132.755 1.96 132.84 2.728C123.965 2.728 116.2 7.12267 109.544 15.912C113.981 17.5333 118.291 18.8133 122.472 19.752C127.08 13.7787 131.304 10.792 135.144 10.792C135.997 10.792 136.723 11.048 137.32 11.56C137.917 11.9867 138.344 12.6693 138.6 13.608C135.272 13.608 131.816 15.9547 128.232 20.648C128.829 20.7333 129.725 20.776 130.92 20.776C139.368 20.776 145.299 18.2587 148.712 13.224C150.163 11.2613 150.888 9.59733 150.888 8.232C150.888 4.392 149.181 2.472 145.768 2.472C146.536 1.27733 147.773 0.679998 149.48 0.679998C152.808 0.679998 154.984 2.344 156.008 5.67201C156.264 6.696 156.392 7.67734 156.392 8.616C156.392 11.432 155.197 14.2053 152.808 16.936C148.627 21.544 142.184 23.848 133.48 23.848C130.92 23.848 128.616 23.6773 126.568 23.336C120.851 32.4667 116.243 45.4373 112.744 62.248C110.269 73.9387 109.032 83.752 109.032 91.688C109.032 95.1013 109.245 98.1733 109.672 100.904C114.536 97.1493 119.187 92.4133 123.624 86.696C128.061 80.9787 131.261 76.2 133.224 72.36L136.168 66.6H139.624C138.941 68.392 137.448 71.2507 135.144 75.176C132.925 79.016 130.749 82.4293 128.616 85.416C126.568 88.3173 123.88 91.56 120.552 95.144C117.224 98.728 113.853 101.757 110.44 104.232C111.549 107.475 113.128 109.096 115.176 109.096C114.323 110.803 113.085 111.656 111.464 111.656C108.733 111.656 106.472 110.376 104.68 107.816C98.536 110.973 92.5627 112.552 86.76 112.552C78.312 112.552 71.016 110.333 64.872 105.896C55.912 116.136 45.1173 121.256 32.488 121.256C19.8587 121.256 10.6853 116.776 4.968 107.816C1.81067 102.781 0.232 97.3627 0.232 91.56C0.232 89.1707 0.488 86.7387 1 84.264C2.792 75.9867 6.84533 70.0987 13.16 66.6C16.488 64.7227 20.2 63.784 24.296 63.784C33.0853 63.784 39.016 67.1973 42.088 74.024C43.368 76.84 44.008 79.7413 44.008 82.728C44.008 85.6293 43.4107 88.5733 42.216 91.56C39.3147 98.728 34.5787 102.312 28.008 102.312C26.984 102.312 26.1307 102.099 25.448 101.672C24.7653 101.16 24.2533 100.435 23.912 99.496C26.216 99.496 28.392 98.8987 30.44 97.704C33.8533 95.656 36.5413 91.944 38.504 86.568C39.016 84.776 39.272 83.3253 39.272 82.216C39.272 81.0213 39.1867 79.6987 39.016 78.248C38.8453 76.712 38.2907 74.9627 37.352 73C36.4133 71.0373 34.792 69.4587 32.488 68.264C30.184 67.0693 27.4533 66.472 24.296 66.472C16.1893 66.472 10.216 70.056 6.376 77.224C4.15733 81.32 3.048 85.2027 3.048 88.872C3.048 92.5413 3.432 95.8267 4.2 98.728C6.41867 106.835 11.0693 112.424 18.152 115.496C21.48 116.947 25.1493 117.672 29.16 117.672C40.68 117.672 51.0907 112.467 60.392 102.056C56.296 97.704 53.48 92.456 51.944 86.312C51.0053 82.728 50.536 79.528 50.536 76.712C50.536 67.8373 53.096 60.7973 58.216 55.592C61.9707 51.8373 66.536 49.96 71.912 49.96C77.3733 49.96 82.28 51.2827 86.632 53.928C94.2267 36.264 100.371 24.0187 105.064 17.192C104.467 17.0213 102.248 16.2107 98.408 14.76C94.6533 13.3093 92.264 12.4133 91.24 12.072L85.096 10.024C77.928 7.63467 71.6133 6.44 66.152 6.44C55.0587 6.44 46.8667 10.6213 41.576 18.984C38.504 23.6773 36.968 28.5413 36.968 33.576C36.968 35.0267 37.1387 36.52 37.48 38.056C38.4187 43.6027 40.8933 46.9307 44.904 48.04C45.672 48.296 46.4827 48.424 47.336 48.424C46.824 50.3013 45.416 51.24 43.112 51.24C37.9067 51.24 34.2373 48.4667 32.104 42.92C31.08 40.2747 30.568 37.3307 30.568 34.088C30.568 30.8453 31.4213 27.2187 33.128 23.208C36.712 14.5893 43.0267 8.70133 52.072 5.544C56.3387 4.09334 60.3067 3.36801 63.976 3.36801C67.7307 3.36801 70.8027 3.58134 73.192 4.00801C75.6667 4.34934 78.6107 5.07467 82.024 6.18401C85.4373 7.208 87.912 7.976 89.448 8.48801C91.0693 9 94.1413 10.152 98.664 11.944C103.272 13.6507 105.917 14.632 106.6 14.888C113.939 5.16 121.96 0.296001 130.664 0.296001ZM103.144 105.128C101.693 101.715 100.968 97.576 100.968 92.712C100.968 87.7627 99.944 82.088 97.896 75.688C95.848 69.2027 92.8613 63.912 88.936 59.816C81.1707 80.296 73.9173 94.8027 67.176 103.336C72.4667 107.517 78.952 109.608 86.632 109.608C92.0933 109.608 97.5973 108.115 103.144 105.128ZM85.352 56.744C82.1093 54.44 78.312 53.288 73.96 53.288C69.6933 53.288 65.896 54.9093 62.568 58.152C57.7893 63.016 55.4 69.3733 55.4 77.224C55.4 85.928 57.832 93.224 62.696 99.112C68.1573 92.1147 73.4053 83.1973 78.44 72.36C80.232 68.3493 82.536 63.144 85.352 56.744ZM101.992 77.096C103.357 67.0267 105.747 57 109.16 47.016C112.573 36.9467 116.456 28.6693 120.808 22.184C117.224 21.3307 112.915 20.008 107.88 18.216C103.869 24.1893 99.8587 32.0827 95.848 41.896C94.6533 44.968 92.776 49.8747 90.216 56.616C95.5067 61.3093 99.432 68.136 101.992 77.096ZM164.032 24.744C167.104 16.7227 168.64 11.2613 168.64 8.36C168.64 5.45867 167.915 3.92267 166.464 3.752C162.453 3.752 158.272 10.1947 153.92 23.08C149.653 35.88 146.283 49.192 143.808 63.016C141.419 76.7547 140.224 86.4827 140.224 92.2C140.224 101.843 142.613 106.664 147.392 106.664C147.392 107.261 147.008 107.859 146.24 108.456C145.472 109.053 144.576 109.352 143.552 109.352C136.555 109.352 133.056 103.08 133.056 90.536C133.056 85.928 133.909 78.888 135.616 69.416C137.323 59.8587 139.541 49.8747 142.272 39.464C145.003 29.0533 148.544 20.008 152.896 12.328C157.248 4.56267 161.685 0.679998 166.208 0.679998C169.792 0.679998 171.584 2.94133 171.584 7.464C171.584 10.8773 170.517 15.656 168.384 21.8C164.288 33.7467 158.4 45.6933 150.72 57.64C148.672 60.7973 146.837 63.3573 145.216 65.32C144.789 65.832 144.576 65.6613 144.576 64.808C144.491 63.1867 144.875 61.7787 145.728 60.584C152.725 50.088 158.827 38.1413 164.032 24.744ZM187.816 70.44C187.816 78.0347 189.011 81.832 191.401 81.832C191.315 82.856 190.59 83.368 189.224 83.368C187.091 83.368 185.47 82.088 184.36 79.528C183.336 76.8827 182.824 73.5973 182.824 69.672C179.411 71.1227 175.87 71.976 172.201 72.232C167.593 100.989 163.667 120.659 160.424 131.24C155.475 147.88 149.544 156.2 142.632 156.2C138.025 156.2 135.721 153.811 135.721 149.032C135.721 146.899 136.19 144.253 137.129 141.096C139.774 132.221 144.681 122.963 151.849 113.32C155.177 108.883 158.078 105.683 160.553 103.72C161.065 100.477 161.875 95.3573 162.984 88.36C164.094 81.2773 164.947 75.9013 165.545 72.232H162.089C161.662 72.232 161.449 71.848 161.449 71.08C161.449 70.2267 161.662 69.8 162.089 69.8H165.929C170.11 43.0907 174.547 24.7013 179.24 14.632C181.032 10.6213 183.166 7.29333 185.64 4.648C188.115 2.00267 190.803 0.679998 193.704 0.679998C199.08 0.679998 201.768 4.60533 201.768 12.456C201.768 18.856 199.806 25.768 195.88 33.192C191.102 42.152 185.384 47.656 178.728 49.704L175.785 50.344C175.016 54.5253 173.95 60.968 172.585 69.672C176.168 69.416 179.624 68.4773 182.952 66.856C183.379 62.3333 184.403 58.4933 186.024 55.336C187.731 52.0933 189.864 50.472 192.424 50.472C194.472 50.472 195.496 51.6667 195.496 54.056C195.496 58.5787 192.979 62.76 187.944 66.6C187.859 67.88 187.816 69.16 187.816 70.44ZM192.552 31.4C196.392 23.976 198.312 17.4907 198.312 11.944C198.312 6.39733 196.947 3.624 194.217 3.624C190.377 3.624 187.091 7.37867 184.36 14.888C181.63 22.312 178.984 33.0213 176.424 47.016C182.568 45.6507 187.944 40.4453 192.552 31.4ZM159.913 107.432C155.049 112.467 150.398 119.677 145.961 129.064C141.523 138.451 139.305 144.723 139.305 147.88C139.305 151.123 140.243 152.744 142.121 152.744C146.046 152.744 149.374 148.819 152.105 140.968C154.835 133.117 157.438 121.939 159.913 107.432ZM188.328 63.144C189.864 61.6933 191.016 60.1573 191.784 58.536C192.638 56.9147 193.064 55.6347 193.064 54.696C193.064 53.672 192.808 53.0747 192.296 52.904C190.419 52.904 189.096 56.3173 188.328 63.144ZM216.102 28.328C218.065 28.328 219.046 29.6507 219.046 32.296C219.046 34.9413 217.766 37.0747 215.206 38.696C213.926 39.5493 212.817 39.976 211.878 39.976C210.513 39.976 209.702 39.5493 209.446 38.696L209.318 38.312C210.086 38.312 210.641 37.5013 210.982 35.88C211.324 34.1733 211.836 32.5093 212.518 30.888C213.286 29.1813 214.481 28.328 216.102 28.328ZM207.91 101.928C210.129 101.928 213.244 98.984 217.254 93.096C221.265 87.208 224.721 81.32 227.622 75.432L231.974 66.6H235.43C234.918 67.624 234.236 69.032 233.382 70.824C232.614 72.5307 231.036 75.6453 228.646 80.168C226.257 84.6053 223.953 88.5307 221.734 91.944C219.601 95.3573 217.169 98.472 214.438 101.288C211.793 104.019 209.489 105.384 207.526 105.384C201.212 105.384 198.054 101.288 198.054 93.096C198.054 86.952 199.804 76.968 203.302 63.144C203.644 61.6933 203.9 60.584 204.07 59.816C204.326 59.048 204.582 58.0667 204.838 56.872C205.094 55.592 205.35 54.44 205.606 53.416C206.033 51.624 206.801 50.728 207.91 50.728C209.446 50.728 210.556 51.8373 211.238 54.056C211.58 55.08 211.75 56.3173 211.75 57.768C211.75 59.2187 211.58 60.7547 211.238 62.376C210.897 63.912 210.342 66.216 209.574 69.288C208.806 72.36 208.209 74.8773 207.782 76.84C207.356 78.8027 206.886 81.192 206.374 84.008C205.436 88.7013 204.966 92.8827 204.966 96.552C204.966 100.136 205.948 101.928 207.91 101.928ZM234.981 86.312C234.981 96.6373 238.651 101.8 245.989 101.8C248.72 101.8 251.579 100.605 254.565 98.216C257.637 95.7413 260.411 92.7973 262.885 89.384C268.347 81.5333 272.187 75.1333 274.405 70.184L276.069 66.6H279.525C278.075 70.0133 275.941 74.2373 273.125 79.272C270.309 84.2213 267.621 88.4027 265.061 91.816C262.501 95.2293 259.472 98.344 255.973 101.16C252.475 103.891 249.147 105.256 245.989 105.256C233.36 105.256 227.045 98.1733 227.045 84.008C227.045 77.4373 228.965 70.8667 232.805 64.296C238.096 55.1653 244.624 50.6 252.389 50.6C257.851 50.6 260.581 53.5867 260.581 59.56C260.581 63.9973 258.875 68.6053 255.461 73.384C250.683 79.8693 245.093 83.1547 238.693 83.24C237.755 83.24 237.157 82.8133 236.901 81.96L236.773 81.448C241.211 81.448 245.435 78.5467 249.445 72.744C253.541 66.856 255.589 61.9493 255.589 58.024C255.589 55.3787 254.565 54.056 252.517 54.056C247.995 54.056 243.771 58.024 239.845 65.96C236.603 72.7013 234.981 79.4853 234.981 86.312ZM291.744 36.648H292C292.768 36.7333 293.365 37.0747 293.792 37.672C294.219 38.2693 294.432 38.9093 294.432 39.592C294.432 40.1893 293.835 41.512 292.64 43.56C291.531 45.608 290.976 47.272 290.976 48.552C290.976 49.7467 291.147 50.8987 291.488 52.008C291.829 53.032 292.896 55.592 294.688 59.688C298.613 68.648 300.576 76.6693 300.576 83.752C300.576 90.7493 298.656 96.552 294.816 101.16C291.061 105.768 286.539 108.072 281.248 108.072C276.043 108.072 273.44 104.915 273.44 98.6C273.44 92.2 275.701 85.3733 280.224 78.12C282.869 73.9387 285.728 70.7813 288.8 68.648C289.653 68.0507 290.208 68.1787 290.464 69.032C290.805 69.8853 290.635 70.568 289.952 71.08C285.003 74.664 281.163 80.3387 278.432 88.104C275.957 95.1013 275.701 99.9653 277.664 102.696C278.347 103.72 279.328 104.232 280.608 104.232C284.363 104.232 287.307 101.715 289.44 96.68C291.573 91.6453 292.64 85.3733 292.64 77.864C292.64 71.3787 291.872 65.3627 290.336 59.816C288.8 54.2693 287.947 51.0693 287.776 50.216C285.216 55.08 282.443 60.5413 279.456 66.6H276C280.864 56.9573 284.619 49.704 287.264 44.84C287.605 39.3787 289.099 36.648 291.744 36.648Z" fill="#991B1B"/>
<path d="M183.164 127.272H184.38C185.195 127.272 185.786 127.121 186.152 126.818C186.519 126.516 186.702 126.066 186.702 125.471C186.702 124.865 186.504 124.431 186.108 124.167C185.713 123.903 185.117 123.771 184.321 123.771H183.164V127.272ZM183.164 128.723V133H181.414V122.292H184.438C185.82 122.292 186.843 122.551 187.507 123.068C188.171 123.586 188.503 124.367 188.503 125.412C188.503 126.745 187.81 127.695 186.423 128.261L189.448 133H187.456L184.893 128.723H183.164ZM194.363 133.146C193.103 133.146 192.117 132.78 191.404 132.048C190.696 131.311 190.342 130.297 190.342 129.008C190.342 127.685 190.671 126.645 191.331 125.888C191.99 125.131 192.896 124.753 194.048 124.753C195.117 124.753 195.962 125.078 196.582 125.727C197.202 126.376 197.512 127.27 197.512 128.408V129.338H192.114C192.139 130.124 192.351 130.729 192.751 131.154C193.152 131.574 193.716 131.784 194.443 131.784C194.922 131.784 195.366 131.74 195.776 131.652C196.191 131.56 196.636 131.408 197.109 131.198V132.597C196.689 132.797 196.265 132.939 195.835 133.022C195.405 133.105 194.915 133.146 194.363 133.146ZM194.048 126.057C193.501 126.057 193.062 126.23 192.729 126.577C192.402 126.923 192.207 127.429 192.144 128.093H195.82C195.811 127.424 195.649 126.918 195.337 126.577C195.024 126.23 194.595 126.057 194.048 126.057ZM204.91 130.693C204.91 131.484 204.622 132.092 204.045 132.517C203.469 132.937 202.644 133.146 201.57 133.146C200.491 133.146 199.624 132.983 198.97 132.656V131.169C199.922 131.608 200.808 131.828 201.628 131.828C202.688 131.828 203.218 131.508 203.218 130.869C203.218 130.664 203.159 130.493 203.042 130.356C202.925 130.219 202.732 130.078 202.463 129.931C202.195 129.785 201.821 129.619 201.343 129.433C200.41 129.072 199.778 128.71 199.446 128.349C199.119 127.988 198.955 127.519 198.955 126.943C198.955 126.25 199.233 125.712 199.79 125.332C200.352 124.946 201.113 124.753 202.075 124.753C203.027 124.753 203.928 124.946 204.778 125.332L204.221 126.628C203.347 126.267 202.612 126.086 202.017 126.086C201.108 126.086 200.654 126.345 200.654 126.862C200.654 127.116 200.771 127.331 201.006 127.507C201.245 127.683 201.763 127.924 202.559 128.232C203.228 128.491 203.713 128.728 204.016 128.942C204.319 129.157 204.543 129.406 204.69 129.689C204.836 129.968 204.91 130.302 204.91 130.693ZM209.795 131.755C210.215 131.755 210.635 131.689 211.055 131.557V132.854C210.864 132.937 210.618 133.005 210.315 133.059C210.017 133.117 209.707 133.146 209.385 133.146C207.754 133.146 206.938 132.287 206.938 130.568V126.203H205.833V125.441L207.019 124.812L207.605 123.098H208.667V124.899H210.974V126.203H208.667V130.539C208.667 130.954 208.77 131.262 208.975 131.462C209.185 131.657 209.458 131.755 209.795 131.755ZM217.749 133L217.405 131.872H217.346C216.956 132.365 216.562 132.702 216.167 132.883C215.771 133.059 215.264 133.146 214.644 133.146C213.848 133.146 213.225 132.932 212.776 132.502C212.332 132.072 212.109 131.464 212.109 130.678C212.109 129.843 212.419 129.213 213.04 128.789C213.66 128.364 214.604 128.132 215.874 128.093L217.273 128.049V127.617C217.273 127.099 217.151 126.713 216.907 126.459C216.667 126.201 216.294 126.071 215.786 126.071C215.371 126.071 214.973 126.132 214.592 126.254C214.211 126.376 213.845 126.521 213.494 126.687L212.937 125.456C213.376 125.227 213.857 125.053 214.38 124.936C214.902 124.814 215.396 124.753 215.859 124.753C216.89 124.753 217.666 124.978 218.188 125.427C218.716 125.876 218.979 126.582 218.979 127.543V133H217.749ZM215.186 131.828C215.811 131.828 216.311 131.655 216.687 131.308C217.068 130.957 217.258 130.466 217.258 129.836V129.133L216.218 129.177C215.408 129.206 214.817 129.343 214.446 129.587C214.08 129.826 213.896 130.195 213.896 130.693C213.896 131.054 214.004 131.335 214.219 131.535C214.434 131.73 214.756 131.828 215.186 131.828ZM227.095 133L226.853 131.938H226.765C226.526 132.314 226.184 132.609 225.74 132.824C225.3 133.039 224.797 133.146 224.231 133.146C223.25 133.146 222.517 132.902 222.034 132.414C221.55 131.926 221.309 131.186 221.309 130.195V124.899H223.044V129.895C223.044 130.515 223.171 130.981 223.425 131.293C223.679 131.601 224.077 131.755 224.619 131.755C225.342 131.755 225.872 131.54 226.208 131.11C226.55 130.676 226.721 129.951 226.721 128.935V124.899H228.45V133H227.095ZM235.012 124.753C235.359 124.753 235.645 124.777 235.869 124.826L235.701 126.43C235.457 126.372 235.203 126.342 234.939 126.342C234.25 126.342 233.691 126.567 233.262 127.016C232.837 127.465 232.625 128.049 232.625 128.767V133H230.903V124.899H232.251L232.478 126.328H232.566C232.834 125.844 233.184 125.461 233.613 125.178C234.048 124.895 234.514 124.753 235.012 124.753ZM242.446 133L242.102 131.872H242.043C241.653 132.365 241.26 132.702 240.864 132.883C240.469 133.059 239.961 133.146 239.341 133.146C238.545 133.146 237.922 132.932 237.473 132.502C237.029 132.072 236.807 131.464 236.807 130.678C236.807 129.843 237.117 129.213 237.737 128.789C238.357 128.364 239.302 128.132 240.571 128.093L241.97 128.049V127.617C241.97 127.099 241.848 126.713 241.604 126.459C241.365 126.201 240.991 126.071 240.483 126.071C240.068 126.071 239.67 126.132 239.29 126.254C238.909 126.376 238.542 126.521 238.191 126.687L237.634 125.456C238.074 125.227 238.555 125.053 239.077 124.936C239.6 124.814 240.093 124.753 240.557 124.753C241.587 124.753 242.363 124.978 242.886 125.427C243.413 125.876 243.677 126.582 243.677 127.543V133H242.446ZM239.883 131.828C240.508 131.828 241.008 131.655 241.384 131.308C241.765 130.957 241.956 130.466 241.956 129.836V129.133L240.916 129.177C240.105 129.206 239.514 129.343 239.143 129.587C238.777 129.826 238.594 130.195 238.594 130.693C238.594 131.054 238.701 131.335 238.916 131.535C239.131 131.73 239.453 131.828 239.883 131.828ZM253.206 133H251.477V128.02C251.477 127.395 251.35 126.928 251.096 126.621C250.847 126.313 250.449 126.159 249.902 126.159C249.175 126.159 248.643 126.374 248.306 126.804C247.969 127.233 247.8 127.954 247.8 128.964V133H246.079V124.899H247.427L247.668 125.961H247.756C248 125.576 248.347 125.278 248.796 125.068C249.246 124.858 249.744 124.753 250.291 124.753C252.234 124.753 253.206 125.742 253.206 127.719V133ZM258.618 131.755C259.038 131.755 259.458 131.689 259.878 131.557V132.854C259.688 132.937 259.441 133.005 259.138 133.059C258.84 133.117 258.53 133.146 258.208 133.146C256.577 133.146 255.762 132.287 255.762 130.568V126.203H254.656V125.441L255.842 124.812L256.428 123.098H257.49V124.899H259.797V126.203H257.49V130.539C257.49 130.954 257.593 131.262 257.798 131.462C258.008 131.657 258.281 131.755 258.618 131.755ZM267.473 124.599C267.473 124.907 267.554 125.197 267.715 125.471C267.881 125.744 268.11 126.035 268.403 126.342C268.955 126.03 269.341 125.739 269.561 125.471C269.785 125.197 269.897 124.892 269.897 124.555C269.897 124.238 269.79 123.984 269.575 123.793C269.365 123.603 269.084 123.508 268.733 123.508C268.347 123.508 268.04 123.608 267.81 123.808C267.585 124.003 267.473 124.267 267.473 124.599ZM268.564 131.667C269.458 131.667 270.222 131.406 270.857 130.883L268.052 128.122C267.534 128.454 267.178 128.767 266.982 129.06C266.787 129.348 266.689 129.677 266.689 130.048C266.689 130.527 266.858 130.917 267.195 131.22C267.537 131.518 267.993 131.667 268.564 131.667ZM264.873 130.166C264.873 129.526 265.029 128.969 265.342 128.496C265.654 128.017 266.218 127.543 267.034 127.075C266.57 126.533 266.252 126.076 266.082 125.705C265.916 125.329 265.833 124.941 265.833 124.541C265.833 123.798 266.096 123.212 266.624 122.783C267.156 122.353 267.869 122.138 268.762 122.138C269.626 122.138 270.305 122.348 270.798 122.768C271.292 123.183 271.538 123.745 271.538 124.453C271.538 125.009 271.372 125.515 271.04 125.969C270.713 126.423 270.164 126.877 269.392 127.331L271.926 129.777C272.322 129.255 272.651 128.488 272.915 127.478H274.688C274.346 128.864 273.799 129.995 273.047 130.869L275.251 133H273.032L271.941 131.938C271.443 132.338 270.911 132.641 270.344 132.846C269.783 133.046 269.16 133.146 268.477 133.146C267.354 133.146 266.472 132.88 265.833 132.348C265.193 131.816 264.873 131.088 264.873 130.166ZM280.583 122.292H283.762C285.237 122.292 286.301 122.507 286.956 122.937C287.615 123.366 287.944 124.045 287.944 124.973C287.944 125.598 287.783 126.118 287.461 126.533C287.139 126.948 286.675 127.209 286.069 127.316V127.39C286.821 127.531 287.373 127.812 287.725 128.232C288.081 128.647 288.259 129.211 288.259 129.924C288.259 130.886 287.922 131.64 287.249 132.187C286.58 132.729 285.647 133 284.451 133H280.583V122.292ZM282.334 126.716H284.019C284.751 126.716 285.286 126.601 285.623 126.372C285.959 126.137 286.128 125.742 286.128 125.185C286.128 124.682 285.945 124.318 285.579 124.094C285.217 123.869 284.641 123.757 283.85 123.757H282.334V126.716ZM282.334 128.137V131.528H284.194C284.927 131.528 285.479 131.389 285.85 131.11C286.226 130.827 286.414 130.383 286.414 129.777C286.414 129.221 286.223 128.808 285.842 128.54C285.461 128.271 284.883 128.137 284.106 128.137H282.334ZM295.371 133L295.027 131.872H294.968C294.578 132.365 294.185 132.702 293.789 132.883C293.394 133.059 292.886 133.146 292.266 133.146C291.47 133.146 290.847 132.932 290.398 132.502C289.954 132.072 289.731 131.464 289.731 130.678C289.731 129.843 290.042 129.213 290.662 128.789C291.282 128.364 292.227 128.132 293.496 128.093L294.895 128.049V127.617C294.895 127.099 294.773 126.713 294.529 126.459C294.29 126.201 293.916 126.071 293.408 126.071C292.993 126.071 292.595 126.132 292.214 126.254C291.833 126.376 291.467 126.521 291.116 126.687L290.559 125.456C290.999 125.227 291.479 125.053 292.002 124.936C292.524 124.814 293.018 124.753 293.481 124.753C294.512 124.753 295.288 124.978 295.811 125.427C296.338 125.876 296.602 126.582 296.602 127.543V133H295.371ZM292.808 131.828C293.433 131.828 293.933 131.655 294.309 131.308C294.69 130.957 294.88 130.466 294.88 129.836V129.133L293.84 129.177C293.03 129.206 292.439 129.343 292.068 129.587C291.702 129.826 291.519 130.195 291.519 130.693C291.519 131.054 291.626 131.335 291.841 131.535C292.056 131.73 292.378 131.828 292.808 131.828ZM303.113 124.753C303.459 124.753 303.745 124.777 303.97 124.826L303.801 126.43C303.557 126.372 303.303 126.342 303.04 126.342C302.351 126.342 301.792 126.567 301.362 127.016C300.938 127.465 300.725 128.049 300.725 128.767V133H299.004V124.899H300.352L300.579 126.328H300.667C300.935 125.844 301.284 125.461 301.714 125.178C302.148 124.895 302.615 124.753 303.113 124.753Z" fill="#991B1B"/>
</svg>
